<mxfile host="app.diagrams.net" modified="2023-08-30T23:21:51.861Z" agent="Mozilla/5.0 (Windows NT 10.0; Win64; x64) AppleWebKit/537.36 (KHTML, like Gecko) Chrome/116.0.0.0 Safari/537.36" etag="Tbu75ePXmExllQeyYCMS" version="21.6.8" type="device">
  <diagram name="Страница — 1" id="tq1C4plWnnu6qHbqkUA_">
    <mxGraphModel dx="1185" dy="653" grid="1" gridSize="10" guides="1" tooltips="1" connect="1" arrows="1" fold="1" page="1" pageScale="1" pageWidth="827" pageHeight="1169" math="0" shadow="0">
      <root>
        <mxCell id="0" />
        <mxCell id="1" parent="0" />
        <mxCell id="3SMc4AgPR56gFBLYlF9--4" style="edgeStyle=orthogonalEdgeStyle;rounded=0;orthogonalLoop=1;jettySize=auto;html=1;" edge="1" parent="1" source="3SMc4AgPR56gFBLYlF9--2" target="3SMc4AgPR56gFBLYlF9--3">
          <mxGeometry relative="1" as="geometry" />
        </mxCell>
        <mxCell id="3SMc4AgPR56gFBLYlF9--2" value="" style="strokeWidth=2;html=1;shape=mxgraph.flowchart.start_1;whiteSpace=wrap;" vertex="1" parent="1">
          <mxGeometry x="60" y="40" width="100" height="60" as="geometry" />
        </mxCell>
        <mxCell id="3SMc4AgPR56gFBLYlF9--14" style="edgeStyle=orthogonalEdgeStyle;rounded=0;orthogonalLoop=1;jettySize=auto;html=1;" edge="1" parent="1" source="3SMc4AgPR56gFBLYlF9--3" target="3SMc4AgPR56gFBLYlF9--5">
          <mxGeometry relative="1" as="geometry" />
        </mxCell>
        <mxCell id="3SMc4AgPR56gFBLYlF9--3" value="Спросить команду" style="html=1;strokeWidth=2;shape=manualInput;whiteSpace=wrap;rounded=1;size=26;arcSize=11;" vertex="1" parent="1">
          <mxGeometry x="60" y="160" width="100" height="60" as="geometry" />
        </mxCell>
        <mxCell id="3SMc4AgPR56gFBLYlF9--18" style="edgeStyle=orthogonalEdgeStyle;rounded=0;orthogonalLoop=1;jettySize=auto;html=1;entryX=0.599;entryY=-0.055;entryDx=0;entryDy=0;entryPerimeter=0;" edge="1" parent="1" source="3SMc4AgPR56gFBLYlF9--5" target="3SMc4AgPR56gFBLYlF9--41">
          <mxGeometry relative="1" as="geometry">
            <mxPoint x="110" y="480" as="targetPoint" />
          </mxGeometry>
        </mxCell>
        <mxCell id="3SMc4AgPR56gFBLYlF9--20" value="Выход" style="edgeLabel;html=1;align=center;verticalAlign=middle;resizable=0;points=[];" vertex="1" connectable="0" parent="3SMc4AgPR56gFBLYlF9--18">
          <mxGeometry x="-0.2821" y="3" relative="1" as="geometry">
            <mxPoint as="offset" />
          </mxGeometry>
        </mxCell>
        <mxCell id="3SMc4AgPR56gFBLYlF9--23" style="edgeStyle=orthogonalEdgeStyle;rounded=0;orthogonalLoop=1;jettySize=auto;html=1;entryX=0;entryY=0.5;entryDx=0;entryDy=0;" edge="1" parent="1" source="3SMc4AgPR56gFBLYlF9--5" target="3SMc4AgPR56gFBLYlF9--21">
          <mxGeometry relative="1" as="geometry" />
        </mxCell>
        <mxCell id="3SMc4AgPR56gFBLYlF9--26" value="Подсчёт шаров" style="edgeLabel;html=1;align=center;verticalAlign=middle;resizable=0;points=[];" vertex="1" connectable="0" parent="3SMc4AgPR56gFBLYlF9--23">
          <mxGeometry x="-0.372" y="-1" relative="1" as="geometry">
            <mxPoint x="13" y="-1" as="offset" />
          </mxGeometry>
        </mxCell>
        <mxCell id="3SMc4AgPR56gFBLYlF9--5" value="Какая команда?" style="strokeWidth=2;html=1;shape=mxgraph.flowchart.decision;whiteSpace=wrap;" vertex="1" parent="1">
          <mxGeometry x="60" y="300" width="100" height="100" as="geometry" />
        </mxCell>
        <mxCell id="3SMc4AgPR56gFBLYlF9--10" value="" style="strokeWidth=2;html=1;shape=mxgraph.flowchart.terminator;whiteSpace=wrap;" vertex="1" parent="1">
          <mxGeometry x="60" y="580" width="100" height="60" as="geometry" />
        </mxCell>
        <mxCell id="3SMc4AgPR56gFBLYlF9--19" style="edgeStyle=orthogonalEdgeStyle;rounded=0;orthogonalLoop=1;jettySize=auto;html=1;entryX=0.5;entryY=0;entryDx=0;entryDy=0;entryPerimeter=0;exitX=0.61;exitY=1.002;exitDx=0;exitDy=0;exitPerimeter=0;" edge="1" parent="1" source="3SMc4AgPR56gFBLYlF9--41" target="3SMc4AgPR56gFBLYlF9--10">
          <mxGeometry relative="1" as="geometry">
            <mxPoint x="110" y="535" as="sourcePoint" />
          </mxGeometry>
        </mxCell>
        <mxCell id="3SMc4AgPR56gFBLYlF9--27" style="edgeStyle=orthogonalEdgeStyle;rounded=0;orthogonalLoop=1;jettySize=auto;html=1;entryX=1;entryY=0.5;entryDx=0;entryDy=0;" edge="1" parent="1" source="3SMc4AgPR56gFBLYlF9--21" target="3SMc4AgPR56gFBLYlF9--3">
          <mxGeometry relative="1" as="geometry">
            <Array as="points">
              <mxPoint x="316" y="190" />
            </Array>
          </mxGeometry>
        </mxCell>
        <mxCell id="3SMc4AgPR56gFBLYlF9--21" value="Посчитать шары" style="verticalLabelPosition=bottom;verticalAlign=top;html=1;shape=process;whiteSpace=wrap;rounded=1;size=0.14;arcSize=6;" vertex="1" parent="1">
          <mxGeometry x="266" y="320" width="100" height="60" as="geometry" />
        </mxCell>
        <mxCell id="3SMc4AgPR56gFBLYlF9--30" style="edgeStyle=orthogonalEdgeStyle;rounded=0;orthogonalLoop=1;jettySize=auto;html=1;" edge="1" parent="1" source="3SMc4AgPR56gFBLYlF9--28" target="3SMc4AgPR56gFBLYlF9--29">
          <mxGeometry relative="1" as="geometry" />
        </mxCell>
        <mxCell id="3SMc4AgPR56gFBLYlF9--28" value="Посчитать шары" style="verticalLabelPosition=bottom;verticalAlign=top;html=1;shape=mxgraph.flowchart.on-page_reference;" vertex="1" parent="1">
          <mxGeometry x="560" y="40" width="60" height="60" as="geometry" />
        </mxCell>
        <mxCell id="3SMc4AgPR56gFBLYlF9--32" style="edgeStyle=orthogonalEdgeStyle;rounded=0;orthogonalLoop=1;jettySize=auto;html=1;entryX=0.504;entryY=-0.055;entryDx=0;entryDy=0;entryPerimeter=0;" edge="1" parent="1" source="3SMc4AgPR56gFBLYlF9--29" target="3SMc4AgPR56gFBLYlF9--31">
          <mxGeometry relative="1" as="geometry" />
        </mxCell>
        <mxCell id="3SMc4AgPR56gFBLYlF9--29" value="Аккумулятор=0" style="rounded=1;whiteSpace=wrap;html=1;absoluteArcSize=1;arcSize=14;strokeWidth=2;" vertex="1" parent="1">
          <mxGeometry x="540" y="160" width="100" height="40" as="geometry" />
        </mxCell>
        <mxCell id="3SMc4AgPR56gFBLYlF9--34" style="edgeStyle=orthogonalEdgeStyle;rounded=0;orthogonalLoop=1;jettySize=auto;html=1;entryX=0.5;entryY=0;entryDx=0;entryDy=0;" edge="1" parent="1" source="3SMc4AgPR56gFBLYlF9--31" target="3SMc4AgPR56gFBLYlF9--33">
          <mxGeometry relative="1" as="geometry" />
        </mxCell>
        <mxCell id="3SMc4AgPR56gFBLYlF9--31" value="Для каждого артикуля" style="strokeWidth=2;html=1;shape=mxgraph.flowchart.loop_limit;whiteSpace=wrap;" vertex="1" parent="1">
          <mxGeometry x="540" y="240" width="100" height="60" as="geometry" />
        </mxCell>
        <mxCell id="3SMc4AgPR56gFBLYlF9--36" style="edgeStyle=orthogonalEdgeStyle;rounded=0;orthogonalLoop=1;jettySize=auto;html=1;entryX=1;entryY=0.5;entryDx=0;entryDy=0;entryPerimeter=0;" edge="1" parent="1" source="3SMc4AgPR56gFBLYlF9--33" target="3SMc4AgPR56gFBLYlF9--31">
          <mxGeometry relative="1" as="geometry">
            <Array as="points">
              <mxPoint x="690" y="360" />
              <mxPoint x="690" y="270" />
            </Array>
          </mxGeometry>
        </mxCell>
        <mxCell id="3SMc4AgPR56gFBLYlF9--38" style="edgeStyle=orthogonalEdgeStyle;rounded=0;orthogonalLoop=1;jettySize=auto;html=1;entryX=0.587;entryY=0.002;entryDx=0;entryDy=0;entryPerimeter=0;" edge="1" parent="1" source="3SMc4AgPR56gFBLYlF9--33" target="3SMc4AgPR56gFBLYlF9--42">
          <mxGeometry relative="1" as="geometry">
            <mxPoint x="590" y="420" as="targetPoint" />
          </mxGeometry>
        </mxCell>
        <mxCell id="3SMc4AgPR56gFBLYlF9--33" value="Аккумулятор+=Число шаров артикуля" style="rounded=1;whiteSpace=wrap;html=1;absoluteArcSize=1;arcSize=14;strokeWidth=2;" vertex="1" parent="1">
          <mxGeometry x="525" y="340" width="130" height="40" as="geometry" />
        </mxCell>
        <mxCell id="3SMc4AgPR56gFBLYlF9--40" style="edgeStyle=orthogonalEdgeStyle;rounded=0;orthogonalLoop=1;jettySize=auto;html=1;exitX=0.593;exitY=1.012;exitDx=0;exitDy=0;exitPerimeter=0;" edge="1" parent="1" source="3SMc4AgPR56gFBLYlF9--42" target="3SMc4AgPR56gFBLYlF9--39">
          <mxGeometry relative="1" as="geometry">
            <mxPoint x="590" y="470" as="sourcePoint" />
          </mxGeometry>
        </mxCell>
        <mxCell id="3SMc4AgPR56gFBLYlF9--39" value="" style="strokeWidth=2;html=1;shape=mxgraph.flowchart.terminator;whiteSpace=wrap;" vertex="1" parent="1">
          <mxGeometry x="540" y="510" width="100" height="60" as="geometry" />
        </mxCell>
        <mxCell id="3SMc4AgPR56gFBLYlF9--41" value="Вывести прощание" style="strokeWidth=2;html=1;shape=mxgraph.flowchart.display;whiteSpace=wrap;" vertex="1" parent="1">
          <mxGeometry x="50" y="480" width="100" height="60" as="geometry" />
        </mxCell>
        <mxCell id="3SMc4AgPR56gFBLYlF9--42" value="Вывести аккумулятор на экран" style="strokeWidth=2;html=1;shape=mxgraph.flowchart.display;whiteSpace=wrap;" vertex="1" parent="1">
          <mxGeometry x="530" y="420" width="100" height="60" as="geometry" />
        </mxCell>
      </root>
    </mxGraphModel>
  </diagram>
</mxfile>
